<svg id="eOkh0GrQjzq1" xmlns="http://www.w3.org/2000/svg" xmlns:xlink="http://www.w3.org/1999/xlink" viewBox="0 0 1450 630" shape-rendering="geometricPrecision" text-rendering="geometricPrecision"><g transform="matrix(1 0 0 1.104141 0.000001-287.97839)"><ellipse rx="72.154227" ry="78.880468" transform="translate(37.812256 403.175012)" fill="#dff8eb" stroke-width="0"/><ellipse rx="77.657515" ry="56.867315" transform="matrix(1.125984 0 0 1.267417 139.92883 387.074602)" fill="#dff8eb" stroke-width="0"/><ellipse rx="81.055884" ry="81.055884" transform="translate(249.927668 421.033321)" fill="#dff8eb" stroke-width="0"/><ellipse rx="89.07848" ry="75.009639" transform="translate(359.754239 394.435899)" fill="#dff8eb" stroke-width="0"/><ellipse rx="61.414355" ry="78.01283" transform="translate(467.091042 417.990267)" fill="#dff8eb" stroke-width="0"/><ellipse rx="80.779242" ry="71.926722" transform="translate(547.870284 438.461718)" fill="#dff8eb" stroke-width="0"/><ellipse rx="66.94718" ry="76.352983" transform="translate(648.567696 434.035457)" fill="#dff8eb" stroke-width="0"/><ellipse rx="63.074203" ry="59.201226" transform="translate(747.60526 410.244312)" fill="#dff8eb" stroke-width="0"/><ellipse rx="43.156033" ry="70.820158" transform="translate(829.491067 417.436984)" fill="#dff8eb" stroke-width="0"/><ellipse rx="68.607028" ry="51.455271" transform="translate(919.122829 382.580186)" fill="#dff8eb" stroke-width="0"/><ellipse rx="34.856796" ry="38.729774" transform="translate(987.729857 394.435899)" fill="#dff8eb" stroke-width="0"/><ellipse rx="49.242141" ry="53.115118" transform="translate(1052.463907 399.731944)" fill="#dff8eb" stroke-width="0"/><ellipse rx="50.348706" ry="43.274424" transform="translate(1138.775974 387.074602)" fill="#dff8eb" stroke-width="0"/><ellipse rx="75.7997" ry="72.074602" transform="translate(1243.899646 394.435899)" fill="#dff8eb" stroke-width="0"/><ellipse rx="48.135576" ry="53.016661" transform="translate(1340.170798 375.377958)" fill="#dff8eb" stroke-width="0"/><ellipse rx="63.627485" ry="35.070678" transform="translate(1425.376301 359.365222)" fill="#dff8eb" stroke-width="0"/></g><rect width="1466.413843" height="423.185945" rx="0" ry="0" transform="translate(-10.31477 212.028619)" fill="#dff8eb" stroke-width="0"/><rect width="618.012088" height="95.911596" rx="0" ry="0" transform="translate(858.832972 134.44408)" fill="#dff8eb" stroke-width="0"/><rect width="33.848719" height="25.241511" rx="0" ry="0" transform="translate(80.312444 196.14517)" fill="#dff8eb" stroke-width="0"/></svg>