<?xml version="1.0" standalone="no"?>
<svg xmlns:xlink="http://www.w3.org/1999/xlink" id="wave" style="transform:rotate(180deg); transition: 0.3s" viewBox="0 0 1440 490" version="1.1" xmlns="http://www.w3.org/2000/svg"><defs><linearGradient id="sw-gradient-0" x1="0" x2="0" y1="1" y2="0"><stop stop-color="rgba(43, 204, 115, 1)" offset="0%"/><stop stop-color="rgba(107, 213, 154, 1)" offset="100%"/></linearGradient></defs><path style="transform:translate(0, 0px); opacity:1" fill="url(#sw-gradient-0)" d="M0,245L60,261.3C120,278,240,310,360,302.2C480,294,600,245,720,187.8C840,131,960,65,1080,65.3C1200,65,1320,131,1440,179.7C1560,229,1680,261,1800,253.2C1920,245,2040,196,2160,147C2280,98,2400,49,2520,89.8C2640,131,2760,261,2880,318.5C3000,376,3120,359,3240,318.5C3360,278,3480,212,3600,220.5C3720,229,3840,310,3960,310.3C4080,310,4200,229,4320,220.5C4440,212,4560,278,4680,261.3C4800,245,4920,147,5040,138.8C5160,131,5280,212,5400,253.2C5520,294,5640,294,5760,294C5880,294,6000,294,6120,261.3C6240,229,6360,163,6480,187.8C6600,212,6720,327,6840,383.8C6960,441,7080,441,7200,400.2C7320,359,7440,278,7560,236.8C7680,196,7800,196,7920,179.7C8040,163,8160,131,8280,114.3C8400,98,8520,98,8580,98L8640,98L8640,490L8580,490C8520,490,8400,490,8280,490C8160,490,8040,490,7920,490C7800,490,7680,490,7560,490C7440,490,7320,490,7200,490C7080,490,6960,490,6840,490C6720,490,6600,490,6480,490C6360,490,6240,490,6120,490C6000,490,5880,490,5760,490C5640,490,5520,490,5400,490C5280,490,5160,490,5040,490C4920,490,4800,490,4680,490C4560,490,4440,490,4320,490C4200,490,4080,490,3960,490C3840,490,3720,490,3600,490C3480,490,3360,490,3240,490C3120,490,3000,490,2880,490C2760,490,2640,490,2520,490C2400,490,2280,490,2160,490C2040,490,1920,490,1800,490C1680,490,1560,490,1440,490C1320,490,1200,490,1080,490C960,490,840,490,720,490C600,490,480,490,360,490C240,490,120,490,60,490L0,490Z"/></svg>